HIERARCHY
ROOT Hips
{
	OFFSET 0.000000 71.427986 0.000000
	CHANNELS 6 Xposition Yposition Zposition Xrotation Yrotation Zrotation
	JOINT Pelvis
	{
		OFFSET 0.000000 0.000000 0.000000
		CHANNELS 3 Xrotation Yrotation Zrotation
		JOINT LeftUpLeg
		{
			OFFSET 6.797100 -2.508499 -1.318700
			CHANNELS 3 Xrotation Yrotation Zrotation
			JOINT LeftLeg
			{
				OFFSET 0.069008 -29.241863 0.690200
				CHANNELS 3 Xrotation Yrotation Zrotation
				JOINT LeftFoot
				{
					OFFSET -0.069008 -29.568123 -0.266800
					CHANNELS 3 Xrotation Yrotation Zrotation
					JOINT LeftToeBase
					{
						OFFSET 3.145500 -8.631000 16.059900
						CHANNELS 3 Xrotation Yrotation Zrotation
						End Site
						{
							OFFSET 0.000000 18.501587 0.000000
						}
					}
				}
			}
			JOINT Left_ShortSleeve
			{
				OFFSET 0.265923 -10.480953 1.153800
				CHANNELS 3 Xrotation Yrotation Zrotation
				End Site
				{
					OFFSET 1.725763 19.823879 0.000000
				}
			}
		}
		JOINT RightUpLeg
		{
			OFFSET -6.797100 -2.508499 -1.318700
			CHANNELS 3 Xrotation Yrotation Zrotation
			JOINT RightLeg
			{
				OFFSET -0.082453 -29.241932 0.688000
				CHANNELS 3 Xrotation Yrotation Zrotation
				JOINT RightFoot
				{
					OFFSET 0.082453 -29.568058 -0.264600
					CHANNELS 3 Xrotation Yrotation Zrotation
					JOINT RightToeBase
					{
						OFFSET -3.115300 -8.682800 16.113400
						CHANNELS 3 Xrotation Yrotation Zrotation
						End Site
						{
							OFFSET 0.000000 18.567114 0.000000
						}
					}
				}
			}
			JOINT Right_ShortSleeve
			{
				OFFSET -0.265923 -10.480953 1.153800
				CHANNELS 3 Xrotation Yrotation Zrotation
				End Site
				{
					OFFSET -1.725766 19.823910 0.000000
				}
			}
		}
	}
	JOINT Spine
	{
		OFFSET 0.000000 13.368103 0.470500
		CHANNELS 3 Xrotation Yrotation Zrotation
		JOINT Spine1
		{
			OFFSET 0.147000 13.837402 0.538800
			CHANNELS 3 Xrotation Yrotation Zrotation
			JOINT Spine2
			{
				OFFSET 0.168000 16.242897 -1.435500
				CHANNELS 3 Xrotation Yrotation Zrotation
				JOINT Neck
				{
					OFFSET 0.217200 18.631500 -1.679100
					CHANNELS 3 Xrotation Yrotation Zrotation
					JOINT Head
					{
						OFFSET 0.000000 6.599396 1.385900
						CHANNELS 3 Xrotation Yrotation Zrotation
						JOINT Hat
						{
							OFFSET -0.532200 27.220596 -10.096100
							CHANNELS 3 Xrotation Yrotation Zrotation
							End Site
							{
								OFFSET 0.000000 22.029861 0.000000
							}
						}
						JOINT HairD
						{
							OFFSET -10.777400 17.437393 -1.325900
							CHANNELS 3 Xrotation Yrotation Zrotation
							JOINT HairD1
							{
								OFFSET -3.290299 -11.051193 1.062200
								CHANNELS 3 Xrotation Yrotation Zrotation
								End Site
								{
									OFFSET 0.000000 11.579437 0.000000
								}
							}
						}
						JOINT HairB
						{
							OFFSET -10.777400 17.437393 1.467900
							CHANNELS 3 Xrotation Yrotation Zrotation
							JOINT HairB1
							{
								OFFSET -1.561200 -12.956299 3.590200
								CHANNELS 3 Xrotation Yrotation Zrotation
								End Site
								{
									OFFSET 0.000000 13.534866 0.000000
								}
							}
						}
						JOINT HairA
						{
							OFFSET 9.713100 17.437393 1.467900
							CHANNELS 3 Xrotation Yrotation Zrotation
							JOINT HairA1
							{
								OFFSET 1.561200 -12.956299 3.590200
								CHANNELS 3 Xrotation Yrotation Zrotation
								End Site
								{
									OFFSET 0.000000 13.534866 0.000000
								}
							}
						}
						JOINT HairC
						{
							OFFSET 9.713100 17.437393 -1.325900
							CHANNELS 3 Xrotation Yrotation Zrotation
							JOINT HairC1
							{
								OFFSET 3.290300 -11.051193 1.062200
								CHANNELS 3 Xrotation Yrotation Zrotation
								End Site
								{
									OFFSET 0.000000 11.579437 0.000000
								}
							}
						}
					}
				}
				JOINT LeftShoulder
				{
					OFFSET 5.101800 15.108002 -2.763700
					CHANNELS 3 Xrotation Yrotation Zrotation
					JOINT LeftArm
					{
						OFFSET 9.825497 2.506317 -1.597400
						CHANNELS 3 Xrotation Yrotation Zrotation
						JOINT LeftForeArm
						{
							OFFSET 21.966244 0.000000 0.000000
							CHANNELS 3 Xrotation Yrotation Zrotation
							JOINT LeftHand
							{
								OFFSET 33.879036 0.000000 0.000000
								CHANNELS 3 Xrotation Yrotation Zrotation
								JOINT LeftHandThumb1
								{
									OFFSET 6.715286 -2.359680 3.363841
									CHANNELS 3 Xrotation Yrotation Zrotation
									JOINT LeftHandThumb2
									{
										OFFSET 2.507072 -1.447464 1.447461
										CHANNELS 3 Xrotation Yrotation Zrotation
										JOINT LeftHandThumb3
										{
											OFFSET 2.898338 -1.673355 1.673357
											CHANNELS 3 Xrotation Yrotation Zrotation
											End Site
											{
												OFFSET -0.295959 3.727692 -0.131651
											}
										}
									}
								}
								JOINT LeftHandIndex1
								{
									OFFSET 14.190811 -0.254547 3.840278
									CHANNELS 3 Xrotation Yrotation Zrotation
									JOINT LeftHandIndex2
									{
										OFFSET 3.551727 0.000000 -0.000000
										CHANNELS 3 Xrotation Yrotation Zrotation
										JOINT LeftHandIndex3
										{
											OFFSET 2.894196 0.000000 0.000000
											CHANNELS 3 Xrotation Yrotation Zrotation
											End Site
											{
												OFFSET -1.000603 2.690872 0.366626
											}
										}
									}
								}
								JOINT LeftHandMiddle1
								{
									OFFSET 13.776489 0.000000 0.000000
									CHANNELS 3 Xrotation Yrotation Zrotation
									JOINT LeftHandMiddle2
									{
										OFFSET 3.438232 0.000000 0.000000
										CHANNELS 3 Xrotation Yrotation Zrotation
										JOINT LeftHandMiddle3
										{
											OFFSET 3.691551 0.000000 0.000000
											CHANNELS 3 Xrotation Yrotation Zrotation
											End Site
											{
												OFFSET -1.082298 3.499527 0.457670
											}
										}
									}
								}
								JOINT LeftHandRing1
								{
									OFFSET 13.966164 -0.268127 -3.067488
									CHANNELS 3 Xrotation Yrotation Zrotation
									JOINT LeftHandRing2
									{
										OFFSET 3.162567 0.000000 0.000000
										CHANNELS 3 Xrotation Yrotation Zrotation
										JOINT LeftHandRing3
										{
											OFFSET 3.324348 0.000000 0.000000
											CHANNELS 3 Xrotation Yrotation Zrotation
											End Site
											{
												OFFSET -0.861900 3.184998 0.405154
											}
										}
									}
								}
								JOINT LeftHandPinky1
								{
									OFFSET 13.131393 -0.168503 -5.746925
									CHANNELS 3 Xrotation Yrotation Zrotation
									JOINT LeftHandPinky2
									{
										OFFSET 2.849182 0.000000 0.000000
										CHANNELS 3 Xrotation Yrotation Zrotation
										JOINT LeftHandPinky3
										{
											OFFSET 2.805038 0.000000 0.000000
											CHANNELS 3 Xrotation Yrotation Zrotation
											End Site
											{
												OFFSET -0.882500 2.642609 0.325652
											}
										}
									}
								}
							}
							JOINT Left_Sleeve
							{
								OFFSET 6.592125 -0.646545 0.805568
								CHANNELS 3 Xrotation Yrotation Zrotation
								End Site
								{
									OFFSET -0.000179 20.275787 -0.000000
								}
							}
						}
					}
				}
				JOINT RightShoulder
				{
					OFFSET -5.731700 15.108002 -2.763700
					CHANNELS 3 Xrotation Yrotation Zrotation
					JOINT RightArm
					{
						OFFSET -9.825497 2.506317 -1.597400
						CHANNELS 3 Xrotation Yrotation Zrotation
						JOINT RightForeArm
						{
							OFFSET -21.966242 0.000000 0.000000
							CHANNELS 3 Xrotation Yrotation Zrotation
							JOINT RightHand
							{
								OFFSET -33.879032 0.000000 0.000000
								CHANNELS 3 Xrotation Yrotation Zrotation
								JOINT RightHandThumb1
								{
									OFFSET -6.715286 -2.359680 3.363841
									CHANNELS 3 Xrotation Yrotation Zrotation
									JOINT RightHandThumb2
									{
										OFFSET -2.507072 -1.447464 1.447461
										CHANNELS 3 Xrotation Yrotation Zrotation
										JOINT RightHandThumb3
										{
											OFFSET -2.898338 -1.673355 1.673357
											CHANNELS 3 Xrotation Yrotation Zrotation
											End Site
											{
												OFFSET 0.295959 3.727692 -0.131651
											}
										}
									}
								}
								JOINT RightHandIndex1
								{
									OFFSET -14.190811 -0.254547 3.840278
									CHANNELS 3 Xrotation Yrotation Zrotation
									JOINT RightHandIndex2
									{
										OFFSET -3.551727 0.000000 -0.000000
										CHANNELS 3 Xrotation Yrotation Zrotation
										JOINT RightHandIndex3
										{
											OFFSET -2.894196 0.000000 0.000000
											CHANNELS 3 Xrotation Yrotation Zrotation
											End Site
											{
												OFFSET 1.000603 2.690872 0.366626
											}
										}
									}
								}
								JOINT RightHandMiddle1
								{
									OFFSET -13.776489 0.000000 0.000000
									CHANNELS 3 Xrotation Yrotation Zrotation
									JOINT RightHandMiddle2
									{
										OFFSET -3.438232 0.000000 0.000000
										CHANNELS 3 Xrotation Yrotation Zrotation
										JOINT RightHandMiddle3
										{
											OFFSET -3.691551 0.000000 0.000000
											CHANNELS 3 Xrotation Yrotation Zrotation
											End Site
											{
												OFFSET 1.082298 3.499527 0.457670
											}
										}
									}
								}
								JOINT RightHandRing1
								{
									OFFSET -13.966164 -0.268127 -3.067488
									CHANNELS 3 Xrotation Yrotation Zrotation
									JOINT RightHandRing2
									{
										OFFSET -3.162567 0.000000 0.000000
										CHANNELS 3 Xrotation Yrotation Zrotation
										JOINT RightHandRing3
										{
											OFFSET -3.324348 0.000000 0.000000
											CHANNELS 3 Xrotation Yrotation Zrotation
											End Site
											{
												OFFSET 0.861900 3.184998 0.405154
											}
										}
									}
								}
								JOINT RightHandPinky1
								{
									OFFSET -13.131393 -0.168503 -5.746925
									CHANNELS 3 Xrotation Yrotation Zrotation
									JOINT RightHandPinky2
									{
										OFFSET -2.849182 0.000000 0.000000
										CHANNELS 3 Xrotation Yrotation Zrotation
										JOINT RightHandPinky3
										{
											OFFSET -2.805038 0.000000 0.000000
											CHANNELS 3 Xrotation Yrotation Zrotation
											End Site
											{
												OFFSET 0.882500 2.642609 0.325652
											}
										}
									}
								}
							}
							JOINT Right_Sleeve
							{
								OFFSET -6.592125 -0.646545 0.805568
								CHANNELS 3 Xrotation Yrotation Zrotation
								End Site
								{
									OFFSET 0.000179 20.275787 -0.000000
								}
							}
						}
					}
				}
				JOINT Bind_Right_JacketString
				{
					OFFSET -3.534800 11.969597 7.200700
					CHANNELS 3 Xrotation Yrotation Zrotation
					JOINT Bind_Right_JacketString1
					{
						OFFSET -0.319900 -6.102600 2.794100
						CHANNELS 3 Xrotation Yrotation Zrotation
						End Site
						{
							OFFSET 0.000000 6.719452 0.000000
						}
					}
				}
				JOINT Bind_Left_JacketString
				{
					OFFSET 2.904800 11.969597 7.200700
					CHANNELS 3 Xrotation Yrotation Zrotation
					JOINT Bind_Left_JacketString1
					{
						OFFSET 0.364800 -5.904503 3.186800
						CHANNELS 3 Xrotation Yrotation Zrotation
						End Site
						{
							OFFSET 0.000000 6.719513 0.000000
						}
					}
				}
				JOINT HairE
				{
					OFFSET 5.915200 17.612701 -11.592200
					CHANNELS 3 Xrotation Yrotation Zrotation
					JOINT HairE1
					{
						OFFSET 0.289200 -7.171898 -1.284500
						CHANNELS 3 Xrotation Yrotation Zrotation
						End Site
						{
							OFFSET 0.000000 7.291756 0.000000
						}
					}
				}
				JOINT HairF
				{
					OFFSET -0.864800 17.612701 -11.592200
					CHANNELS 3 Xrotation Yrotation Zrotation
					JOINT HairF1
					{
						OFFSET 0.000000 -14.087097 -2.127501
						CHANNELS 3 Xrotation Yrotation Zrotation
						End Site
						{
							OFFSET 0.000000 14.246841 0.000000
						}
					}
				}
				JOINT HairG
				{
					OFFSET -8.087700 17.612701 -11.592200
					CHANNELS 3 Xrotation Yrotation Zrotation
					JOINT HairG1
					{
						OFFSET -0.293600 -6.081398 -0.910100
						CHANNELS 3 Xrotation Yrotation Zrotation
						End Site
						{
							OFFSET 0.000000 6.156120 0.000000
						}
					}
				}
			}
		}
	}
	JOINT Pouch
	{
		OFFSET 0.000000 4.394501 10.847300
		CHANNELS 3 Xrotation Yrotation Zrotation
		End Site
		{
			OFFSET 0.000000 21.880577 0.000000
		}
	}
	JOINT Bag
	{
		OFFSET -13.229000 4.813004 -0.593300
		CHANNELS 3 Xrotation Yrotation Zrotation
		End Site
		{
			OFFSET 0.000000 21.880577 0.000000
		}
	}
	JOINT OccupyGuyFacialAnim_Joint
	{
		OFFSET 1.000000 -70.206398 -1.655000
		CHANNELS 3 Xrotation Yrotation Zrotation
		End Site
		{
			OFFSET 0.000000 21.880577 0.000000
		}
	}
}
MOTION
Frames: 4
Frame Time: 0.033333
-0.209293 61.946510 -1.332981 -31.384548 -0.296637 -2.610262 -0.000001 0.000000 -0.000000 -75.692204 -4.270692 18.959352 88.577848 -1.264198 -2.861735 16.932177 -0.554296 0.987828 -0.000000 0.000000 0.000000 0.000002 0.000000 0.000000 -74.735465 -2.172522 -11.909544 89.565985 1.223194 2.888264 13.571039 -13.236802 -6.490333 -0.000000 0.000002 0.000000 -0.000001 0.000000 0.000000 4.042152 0.436532 1.208270 8.073038 1.002088 2.474256 8.073039 1.002088 2.474258 -22.224575 -0.419183 0.684540 13.134636 -0.554263 -1.538344 -0.000003 0.000000 0.000000 -0.000003 0.000000 0.000000 -0.000003 0.000000 0.000000 -0.000003 0.000000 0.000000 -0.000001 -0.000000 0.000000 -0.000003 0.000000 0.000000 -0.000001 -0.000000 0.000000 -0.000003 0.000000 0.000000 -0.000003 0.000000 0.000000 -0.967235 13.061268 9.087205 -70.234678 -26.339520 -63.282215 -21.422267 -64.389505 -19.493150 50.601767 3.532275 19.491487 -1.256392 -1.076762 -7.187324 13.716635 33.229721 -8.116258 -0.000000 0.000001 -0.000000 4.385836 4.417144 -93.536456 1.052949 0.911558 -91.003644 0.000001 0.000001 -0.000002 4.135335 -1.445224 -94.833878 -3.064046 -4.387675 -69.660833 0.000000 0.000002 -0.000001 0.886243 -1.311149 -94.465785 -3.929035 -4.777181 -78.975749 -0.000001 0.000000 0.000000 -1.485287 -2.694481 -93.009575 -6.243161 -6.639297 -86.240311 -0.000000 -0.000001 0.000001 -0.000003 -0.000000 0.000002 -0.211022 -9.374979 -5.461593 -38.917014 48.752333 11.032897 -22.834822 65.445288 20.825641 17.590059 -0.538323 -25.277197 -14.928702 7.743909 12.816206 15.394712 -30.646451 3.940274 -0.000000 -0.000001 -0.000000 -2.930231 -19.422855 65.480409 1.786115 -2.105826 77.422626 0.000000 -0.000001 0.000000 -2.213043 -13.210522 81.552097 -3.393168 3.541753 87.378248 0.000001 -0.000001 -0.000001 -1.831567 -13.942819 81.589089 -5.433075 6.106359 81.822941 -0.000001 -0.000001 0.000001 -4.798269 -15.466123 90.711428 -4.663407 8.378893 58.125463 -0.000002 -0.000000 0.000000 0.000001 -0.000000 0.000003 -0.000001 -0.000000 -0.000000 -0.000001 -0.000000 -0.000000 -0.000001 -0.000000 -0.000000 -0.000001 -0.000000 -0.000000 -0.000001 -0.000000 -0.000000 -0.000001 -0.000000 -0.000000 -0.000001 -0.000000 -0.000000 -0.000001 -0.000000 -0.000000 -0.000001 -0.000000 -0.000000 -0.000001 -0.000000 -0.000000 -0.000001 0.000000 -0.000000 -0.000001 0.000000 -0.000000 -0.000001 0.000000 -0.000000 
-0.214244 61.906216 -1.314426 -31.442981 -0.331180 -2.715074 0.000000 0.000000 0.000000 -75.732523 -4.416242 19.038548 88.666381 -1.266564 -2.863708 17.060090 -0.642329 0.919970 0.000000 -0.000001 0.000000 0.000000 -0.000000 -0.000001 -74.728622 -2.153257 -11.722173 89.630687 1.227685 2.889294 13.591815 -13.354240 -6.376659 0.000000 -0.000001 -0.000000 -0.000001 -0.000000 0.000001 4.111246 0.464580 1.223232 8.210736 1.052139 2.490513 8.210729 1.052139 2.490512 -22.080258 -0.248831 0.478698 12.812401 -0.260955 -1.462548 -0.000000 0.000000 -0.000000 -0.000000 0.000000 -0.000000 -0.000000 0.000000 -0.000000 -0.000000 0.000000 -0.000000 0.000001 -0.000000 -0.000000 -0.000000 0.000000 -0.000000 0.000001 -0.000000 -0.000000 -0.000000 0.000000 -0.000000 -0.000000 0.000000 -0.000000 -0.940855 12.975841 8.960520 -69.894125 -26.355851 -62.741735 -21.838989 -65.279294 -20.120901 50.444751 4.359450 20.002404 -2.426335 5.402184 -3.297651 13.148821 32.402855 -7.641051 -0.000001 -0.000000 0.000000 3.486997 4.916745 -90.429348 1.045231 0.912425 -90.535264 0.000001 0.000000 -0.000000 3.416221 -1.079508 -92.789650 -3.056861 -4.385010 -69.566843 -0.000000 0.000000 0.000002 0.314217 -1.111917 -92.858874 -3.905949 -4.772649 -78.698539 -0.000002 0.000001 -0.000001 -6.726656 -2.915773 -128.995403 -6.277935 -6.641242 -86.540635 0.000001 -0.000000 0.000001 0.000002 0.000001 0.000002 -0.205920 -9.355281 -5.426793 -38.903791 48.673601 10.767858 -22.809685 65.374432 20.790324 17.725616 -0.266675 -26.119408 -14.692666 1.135128 -16.182571 15.190913 -30.357558 3.834747 0.000001 -0.000001 0.000001 -7.105886 -5.152070 58.359540 1.779937 -2.104701 77.257294 0.000000 -0.000001 0.000000 -5.688413 -0.193112 77.140949 -3.388135 3.541513 87.296655 0.000000 -0.000001 -0.000001 -0.186071 1.770809 82.791141 -5.431107 6.106070 81.804315 -0.000002 -0.000001 -0.000001 -5.398743 5.734442 91.447333 -4.691570 8.395968 58.318225 0.000002 -0.000000 -0.000001 0.000000 0.000001 -0.000003 0.000001 0.000000 -0.000000 0.000001 0.000000 -0.000000 0.000001 0.000000 0.000000 0.000001 0.000000 0.000000 0.000001 0.000000 -0.000000 0.000001 0.000000 -0.000000 0.000001 0.000000 0.000000 0.000001 0.000000 0.000000 0.000001 0.000000 -0.000000 0.000001 0.000000 -0.000000 0.000000 0.000000 0.000000 0.000000 0.000000 0.000000 0.000000 0.000000 0.000000 
-0.202750 61.850533 -1.326851 -31.624619 -0.189240 -2.671408 0.000002 0.000000 -0.000000 -75.634906 -4.489275 18.793044 88.656395 -1.264809 -2.863223 17.263769 -0.648287 0.824280 0.000000 -0.000001 -0.000000 0.000002 -0.000001 0.000003 -74.657055 -2.069971 -11.883763 89.711086 1.230023 2.890987 13.747287 -13.242119 -6.194100 -0.000000 -0.000001 -0.000000 0.000001 0.000000 0.000000 4.203569 0.460575 1.200098 8.395507 1.049241 2.451611 8.395513 1.049241 2.451612 -21.795974 -0.216155 0.218485 12.648501 -0.655593 -1.155063 -0.000002 0.000000 -0.000000 -0.000002 0.000000 -0.000000 -0.000002 0.000000 -0.000000 -0.000002 0.000000 -0.000000 -0.000002 0.000000 0.000000 -0.000002 0.000000 -0.000000 -0.000002 0.000000 0.000000 -0.000002 0.000000 -0.000000 -0.000002 0.000000 -0.000000 -0.847957 12.806632 8.421884 -72.134741 -28.343514 -62.730827 -19.219843 -61.970887 -17.227419 49.417433 3.264267 20.708939 -8.862345 -1.268882 -5.308921 11.996786 30.629570 -6.673811 0.000001 0.000002 0.000000 0.818031 5.481423 -84.780741 1.039107 0.913048 -90.163121 0.000001 0.000001 -0.000000 1.444524 -0.470948 -88.075720 -3.027184 -4.373840 -69.178225 0.000001 0.000000 -0.000001 -1.424436 -0.753819 -88.425849 -3.854559 -4.762150 -78.080127 -0.000002 0.000000 -0.000001 -8.114508 -1.773524 -128.404496 -6.376416 -6.645674 -87.389996 0.000001 -0.000001 0.000001 -0.000000 0.000000 -0.000002 -0.184191 -9.251799 -5.289314 -39.122340 49.857792 10.183120 -21.039576 63.322267 18.828887 17.124855 0.362516 -25.840491 -17.543114 5.771215 -13.081003 14.625593 -29.544663 3.543839 0.000001 -0.000001 -0.000000 -9.087101 -3.919900 57.910066 1.774778 -2.103765 77.118867 -0.000000 -0.000001 0.000002 -7.251047 0.210637 76.075193 -3.384341 3.541320 87.235279 0.000001 -0.000000 -0.000001 -1.592178 1.954052 83.115117 -5.422466 6.104834 81.723090 -0.000002 -0.000001 -0.000001 -5.674416 5.760266 88.989640 -4.883906 8.509096 59.624676 -0.000000 0.000000 0.000001 -0.000001 0.000001 -0.000005 0.000000 0.000000 -0.000000 -0.000001 0.000000 -0.000000 0.000000 0.000000 0.000000 0.000000 0.000000 0.000000 0.000000 0.000000 -0.000000 -0.000001 0.000000 -0.000000 0.000000 0.000000 0.000000 0.000000 0.000000 0.000000 0.000000 0.000000 -0.000000 -0.000001 0.000000 -0.000000 0.000002 0.000000 -0.000000 0.000002 0.000000 -0.000000 0.000002 0.000000 -0.000000 
-0.170562 61.864487 -1.376122 -31.761811 0.073806 -2.302797 0.000000 -0.000000 0.000000 -75.365059 -4.201902 18.246418 88.424524 -1.257734 -2.857609 17.287098 -0.502568 0.789953 -0.000000 0.000001 -0.000000 -0.000000 -0.000000 0.000000 -74.567757 -1.833697 -12.536758 89.650748 1.227137 2.890842 14.190939 -12.873438 -5.819750 0.000000 -0.000000 -0.000000 0.000000 0.000000 -0.000001 4.194047 0.411044 1.116700 8.377349 0.980426 2.337741 8.377347 0.980426 2.337740 -20.795611 -0.338986 -0.355896 13.256627 -2.374265 -0.319733 0.000001 0.000000 0.000000 0.000001 0.000000 0.000000 0.000001 0.000000 -0.000000 0.000001 0.000000 0.000000 0.000003 0.000000 0.000000 0.000001 0.000000 0.000000 0.000003 0.000000 0.000000 0.000001 0.000000 0.000000 0.000001 0.000000 0.000000 -0.672809 11.766565 7.802257 -76.532495 -32.665749 -62.687408 -15.167519 -52.843726 -12.042015 46.744285 -1.265192 19.704817 -6.088480 1.432191 -6.871712 13.562084 33.007364 -7.986667 0.000000 -0.000000 -0.000001 1.405508 5.461880 -85.481224 1.026989 0.914160 -89.431574 0.000001 0.000001 -0.000000 1.182121 -0.608132 -89.352904 -2.986085 -4.358030 -68.638340 -0.000000 -0.000000 -0.000003 -1.251307 -0.838398 -89.911873 -3.807441 -4.752022 -77.511883 -0.000001 -0.000000 -0.000003 -7.755903 -2.067027 -127.741285 -6.498779 -6.649181 -88.444905 0.000001 -0.000000 -0.000002 0.000003 -0.000003 0.000005 -0.168509 -8.283379 -5.711011 -40.431155 50.713765 10.984082 -18.793330 60.530803 16.355441 15.851863 0.326849 -21.343568 -21.275419 9.162882 -7.286545 14.836371 -29.849720 3.652054 -0.000000 0.000000 0.000001 -10.704101 -2.642818 55.555683 1.766205 -2.102162 76.888997 -0.000001 0.000000 0.000006 -8.095092 0.671476 72.797604 -3.403173 3.542178 87.539946 -0.000001 0.000000 0.000003 -1.734998 1.850187 79.935056 -5.447495 6.108401 81.958329 -0.000002 -0.000000 -0.000001 -5.288630 5.861875 83.504547 -4.914403 8.526492 59.830251 -0.000002 0.000001 -0.000003 -0.000001 -0.000000 0.000001 -0.000001 0.000000 0.000000 -0.000001 0.000000 0.000000 -0.000001 0.000000 0.000000 -0.000001 0.000000 0.000000 -0.000001 0.000000 0.000000 -0.000001 0.000000 0.000000 -0.000001 0.000000 0.000000 -0.000001 0.000000 0.000000 -0.000001 0.000000 0.000000 -0.000001 0.000000 0.000000 0.000000 -0.000000 0.000000 0.000000 -0.000000 0.000000 0.000000 -0.000000 0.000000 
